<svg width="28" height="28" viewBox="0 0 28 28" fill="none" xmlns="http://www.w3.org/2000/svg">
<path d="M25.6369 2.36306C26.3858 3.10768 26.9801 3.993 27.3857 4.96812C27.7912 5.94323 28 6.98889 28 8.04498C28 9.10106 27.7912 10.1467 27.3857 11.1218C26.9801 12.0969 26.3858 12.9823 25.6369 13.7269C23.2099 16.154 19.6094 16.6844 16.652 15.3503L13.6462 20.6706L8.84033 21.1688L6.42933 27.1481H1.60733L0 23.9334L12.7783 11.5731C11.2995 8.56736 11.7817 4.85442 14.2731 2.36306C15.0177 1.61416 15.9031 1.01985 16.8782 0.614314C17.8533 0.208773 18.8989 0 19.955 0C21.0111 0 22.0568 0.208773 23.0319 0.614314C24.007 1.01985 24.8923 1.61416 25.6369 2.36306ZM21.6025 8.45485C22.792 8.45485 23.7403 7.49045 23.7403 6.30102C23.7403 5.73405 23.5151 5.19031 23.1142 4.7894C22.7133 4.3885 22.1695 4.16327 21.6025 4.16327C21.0356 4.16327 20.4918 4.3885 20.0909 4.7894C19.69 5.19031 19.4648 5.73405 19.4648 6.30102C19.4648 7.49045 20.4292 8.45485 21.6025 8.45485Z" fill="#12DB74"/>
</svg>
