<svg width="25" height="25" viewBox="0 0 25 25" fill="none" xmlns="http://www.w3.org/2000/svg">
<path d="M12.5 0C5.5971 0 0 5.5971 0 12.5C0 19.4029 5.5971 25 12.5 25C19.4029 25 25 19.4029 25 12.5C25 5.5971 19.4029 0 12.5 0ZM12.5 22.8795C6.76897 22.8795 2.12054 18.231 2.12054 12.5C2.12054 10.0167 2.99386 7.73438 4.45033 5.94866L19.0513 20.5497C17.2656 22.0061 14.9833 22.8795 12.5 22.8795ZM20.5497 19.0513L5.94866 4.45033C7.73438 2.99386 10.0167 2.12054 12.5 2.12054C18.231 2.12054 22.8795 6.76897 22.8795 12.5C22.8795 14.9833 22.0061 17.2656 20.5497 19.0513Z" fill="white"/>
</svg>
