<svg width="22" height="22" viewBox="0 0 22 22" fill="none" xmlns="http://www.w3.org/2000/svg">
<path d="M11.7644 14.08L7.15112 14.9104L7.92001 10.2356L16.7315 1.45487C16.8744 1.31074 17.0445 1.19634 17.2319 1.11827C17.4193 1.04019 17.6203 1 17.8233 1C18.0263 1 18.2273 1.04019 18.4147 1.11827C18.6021 1.19634 18.7721 1.31074 18.9151 1.45487L20.5451 3.08491C20.6893 3.22787 20.8037 3.39795 20.8818 3.58534C20.9598 3.77273 21 3.97373 21 4.17673C21 4.37974 20.9598 4.58073 20.8818 4.76813C20.8037 4.95552 20.6893 5.1256 20.5451 5.26856L11.7644 14.08Z" stroke="#F0F0F0" stroke-linecap="round" stroke-linejoin="round"/>
<path d="M18.6844 14.8489V19.4622C18.6844 19.8701 18.5224 20.2612 18.234 20.5496C17.9456 20.838 17.5545 21 17.1466 21H2.53778C2.12993 21 1.73879 20.838 1.4504 20.5496C1.16202 20.2612 1 19.8701 1 19.4622V4.85336C1 4.44551 1.16202 4.05438 1.4504 3.76599C1.73879 3.4776 2.12993 3.31558 2.53778 3.31558H7.1511" stroke="#F0F0F0" stroke-linecap="round" stroke-linejoin="round"/>
</svg>
