<svg width="25" height="26" viewBox="0 0 25 26" fill="none" xmlns="http://www.w3.org/2000/svg">
<path d="M1.35714 7.02806C2.41838 4.91485 4.04639 3.13841 6.05923 1.89728C8.07206 0.656157 10.3904 -0.000744348 12.7551 6.32948e-07C16.1926 6.32948e-07 19.0804 1.26403 21.2883 3.3227L17.6314 6.98087C16.3087 5.71684 14.6276 5.0727 12.7551 5.0727C9.4324 5.0727 6.6199 7.3176 5.61862 10.3316C5.36352 11.0969 5.21811 11.9133 5.21811 12.7551C5.21811 13.5969 5.36352 14.4133 5.61862 15.1786C6.62117 18.1939 9.4324 20.4375 12.7551 20.4375C14.4707 20.4375 15.9311 19.9847 17.074 19.2194C17.7365 18.7832 18.3037 18.2171 18.7413 17.5555C19.1789 16.8938 19.4778 16.1503 19.6199 15.3699H12.7551V10.4362H24.7679C24.9184 11.2704 25 12.1403 25 13.0446C25 16.9298 23.6097 20.2003 21.1964 22.4196C19.0867 24.3686 16.199 25.5102 12.7551 25.5102C11.0799 25.5109 9.42097 25.1814 7.87314 24.5406C6.32532 23.8999 4.91894 22.9604 3.73439 21.7758C2.54983 20.5913 1.61033 19.1849 0.96956 17.6371C0.328793 16.0892 -0.000669466 14.4303 1.02132e-06 12.7551C1.02132e-06 10.6964 0.492348 8.75 1.35714 7.02806Z" fill="#F0F0F0"/>
</svg>
