<svg width="210" height="195" viewBox="0 0 210 195" fill="none" xmlns="http://www.w3.org/2000/svg">
<g filter="url(#filter0_f_139_3)">
<path d="M160 80.4464C160 114.821 109.032 142.646 106.861 143.795C106.289 144.102 105.65 144.263 105 144.263C104.35 144.263 103.711 144.102 103.139 143.795C100.968 142.646 50 114.821 50 80.4464C50.0091 72.3743 53.2198 64.6354 58.9276 58.9276C64.6354 53.2198 72.3743 50.0091 80.4464 50C90.5871 50 99.4656 54.3607 105 61.7317C110.534 54.3607 119.413 50 129.554 50C137.626 50.0091 145.365 53.2198 151.072 58.9276C156.78 64.6354 159.991 72.3743 160 80.4464Z" fill="#DBA53D" fill-opacity="0.9"/>
</g>
<path d="M135 87.6071C135 106.357 107.199 121.534 106.015 122.161C105.703 122.329 105.354 122.416 105 122.416C104.646 122.416 104.297 122.329 103.985 122.161C102.801 121.534 75 106.357 75 87.6071C75.005 83.2042 76.7562 78.983 79.8696 75.8696C82.983 72.7562 87.2042 71.005 91.6071 71C97.1384 71 101.981 73.3786 105 77.3991C108.019 73.3786 112.862 71 118.393 71C122.796 71.005 127.017 72.7562 130.13 75.8696C133.244 78.983 134.995 83.2042 135 87.6071Z" fill="#DBA53D"/>
<defs>
<filter id="filter0_f_139_3" x="0" y="0" width="210" height="194.263" filterUnits="userSpaceOnUse" color-interpolation-filters="sRGB">
<feFlood flood-opacity="0" result="BackgroundImageFix"/>
<feBlend mode="normal" in="SourceGraphic" in2="BackgroundImageFix" result="shape"/>
<feGaussianBlur stdDeviation="25" result="effect1_foregroundBlur_139_3"/>
</filter>
</defs>
</svg>
