<svg width="40" height="40" viewBox="0 0 40 40" fill="none" xmlns="http://www.w3.org/2000/svg">
<path d="M24.7929 39.7841L7.48916 36.0583C2.36941 34.9557 -0.88811 29.9112 0.214455 24.7915L3.94032 7.48916C5.04288 2.36941 10.0874 -0.88811 15.2071 0.214455L32.5108 3.94032C37.6306 5.04288 40.8881 10.0874 39.7855 15.2071L36.0597 32.5108C34.9571 37.6306 29.9126 40.8867 24.7929 39.7841Z" fill="#12DB74"/>
<path d="M27.1709 36.9533H12.8278C7.591 36.9533 3.34521 32.7075 3.34521 27.4707V12.5352C3.34521 7.29833 7.591 3.05255 12.8278 3.05255H27.1709C32.4078 3.05255 36.6536 7.29833 36.6536 12.5352V27.4707C36.6536 32.7075 32.4078 36.9533 27.1709 36.9533Z" fill="black"/>
<path d="M29.3258 23.7308C29.3286 23.6806 29.3258 23.6277 29.309 23.5705C29.3704 23.7796 29.3188 23.5217 29.3216 23.4325C29.3286 23.1914 29.3216 22.9474 29.3216 22.7063C29.3216 21.9522 29.3216 21.1995 29.3216 20.4454C29.3216 18.664 29.3216 16.8826 29.3216 15.1026C29.3216 14.1618 29.3216 13.2209 29.3216 12.28C29.3216 11.0186 29.355 9.40443 27.6475 9.56612C24.6242 9.85326 21.6064 10.3314 18.5928 10.7119C17.7244 10.822 16.2734 10.7454 15.7312 11.5831C15.366 12.1462 15.4956 12.9825 15.4956 13.6265C15.4956 14.1743 15.4956 14.7235 15.4956 15.2713C15.4956 17.9978 15.4956 20.7242 15.4956 23.4506C13.5776 22.7746 10.9041 23.5371 10.2295 25.6363C9.46844 28.0059 12.1865 29.1461 14.0292 28.8241C15.1025 28.6359 16.1842 28.0686 16.8059 27.1221C17.0568 26.7402 17.2254 26.2942 17.2477 25.8314C17.2561 25.6516 17.2254 25.4913 17.2087 25.3212C17.2115 25.3157 17.2129 25.2571 17.2115 25.2292C17.1697 23.9427 17.2115 22.6478 17.2115 21.3612C17.2115 19.7973 17.2115 18.2333 17.2115 16.668C17.2115 16.1857 17.1223 15.7397 17.6492 15.4539C17.9224 15.3062 18.4716 15.3494 18.7754 15.3117C20.3979 15.1068 22.019 14.9005 23.6415 14.6956C24.7092 14.5604 25.8564 14.2775 26.9353 14.2789C27.7409 14.2803 27.6085 15.0525 27.6085 15.61C27.6085 16.477 27.6085 17.3426 27.6085 18.2096C27.6085 19.407 27.6085 20.6043 27.6085 21.8017C26.2021 21.2845 24.528 21.5856 23.3627 22.5558C22.3103 23.4339 21.7848 24.9728 22.7299 26.1478C24.5977 28.477 29.6603 26.9312 29.3258 23.7308Z" fill="white"/>
</svg>
