<svg width="50" height="50" viewBox="0 0 50 50" fill="none" xmlns="http://www.w3.org/2000/svg">
<path d="M30.9911 49.7302L9.36145 45.0729C2.96176 43.6946 -1.11014 37.389 0.268069 30.9894L4.9254 9.36145C6.3036 2.96176 12.6092 -1.11014 19.0089 0.268069L40.6386 4.9254C47.0382 6.3036 51.1101 12.6092 49.7319 19.0089L45.0746 40.6386C43.6964 47.0382 37.3908 51.1084 30.9911 49.7302Z" fill="#9D28DB"/>
<path d="M33.9636 46.1915H16.0347C9.48863 46.1915 4.1814 40.8843 4.1814 34.3383V15.6689C4.1814 9.12284 9.48863 3.81561 16.0347 3.81561H33.9636C40.5096 3.81561 45.8168 9.12284 45.8168 15.6689V34.3383C45.8168 40.8843 40.5096 46.1915 33.9636 46.1915Z" fill="black"/>
<path d="M36.6574 29.6635C36.6609 29.6007 36.6574 29.5345 36.6365 29.4631C36.7132 29.7245 36.6487 29.4021 36.6522 29.2906C36.6609 28.9892 36.6522 28.6843 36.6522 28.3828C36.6522 27.4402 36.6522 26.4993 36.6522 25.5567C36.6522 23.33 36.6522 21.1033 36.6522 18.8783C36.6522 17.7022 36.6522 16.5261 36.6522 15.35C36.6522 13.7731 36.694 11.7555 34.5596 11.9576C30.7805 12.3165 27.0082 12.9142 23.2413 13.3898C22.1558 13.5275 20.342 13.4316 19.6642 14.4788C19.2077 15.1827 19.3697 16.2281 19.3697 17.0331C19.3697 17.7178 19.3697 18.4043 19.3697 19.0891C19.3697 22.4971 19.3697 25.9052 19.3697 29.3133C16.9722 28.4682 13.6304 29.4213 12.7871 32.0453C11.8358 35.0073 15.2334 36.4325 17.5368 36.0301C18.8784 35.7948 20.2305 35.0857 21.0076 33.9026C21.3212 33.4252 21.532 32.8677 21.5599 32.2892C21.5703 32.0644 21.532 31.8641 21.5111 31.6515C21.5146 31.6445 21.5163 31.5714 21.5146 31.5365C21.4623 29.9283 21.5146 28.3097 21.5146 26.7015C21.5146 24.7465 21.5146 22.7916 21.5146 20.8349C21.5146 20.2321 21.4031 19.6745 22.0617 19.3173C22.4032 19.1326 23.0897 19.1867 23.4695 19.1396C25.4976 18.8835 27.524 18.6256 29.5521 18.3695C30.8867 18.2005 32.3207 17.8468 33.6693 17.8485C34.6764 17.8503 34.5108 18.8155 34.5108 19.5125C34.5108 20.5962 34.5108 21.6782 34.5108 22.762C34.5108 24.2587 34.5108 25.7554 34.5108 27.252C32.7528 26.6056 30.6602 26.982 29.2036 28.1947C27.8881 29.2923 27.2313 31.2159 28.4126 32.6847C30.7473 35.5962 37.0756 33.6639 36.6574 29.6635Z" fill="white"/>
</svg>
