<svg width="40" height="35" viewBox="0 0 40 35" fill="none" xmlns="http://www.w3.org/2000/svg">
<path d="M2 8.31176C2.96174 8.10567 5.23819 7.7539 7.84153 8.71446C8.6031 8.99517 9.52458 9.44525 11.8034 11.3332C14.7538 13.779 16.1028 15.4265 18.7867 18.0476C21.268 20.4709 20.7291 19.7046 23.3526 22.2108C24.46 23.2685 25.6729 24.4636 27.5833 25.7025C28.7819 26.4795 29.5577 26.8218 30.3359 27.0456C31.6589 27.4258 32.7817 27.4033 33.5587 27.3808C35.2548 27.3334 35.3081 26.9852 37.1842 26.9781C37.4282 26.9769 37.6283 26.9828 37.7847 26.9769C38.0097 26.9698 38.1447 26.9414 38.1921 26.8431C38.3923 26.425 36.7732 25.2252 35.1707 24.1568L33.4248 22.4785L32.0817 21.2029" stroke="#9D28DB" stroke-width="3" stroke-miterlimit="10" stroke-linecap="round"/>
<path d="M37.8568 27.3914L35.7083 30.0813L33.8949 31.8804L31.9478 33.4248" stroke="#9D28DB" stroke-width="3" stroke-miterlimit="10" stroke-linecap="round"/>
<path d="M14.6235 22.0095L12.4074 24.0242L10.1926 25.77L8.31174 26.7779L4.28355 27.3915H2" stroke="#9D28DB" stroke-width="3" stroke-miterlimit="10" stroke-linecap="round"/>
<path d="M23.1514 13.8181L25.0985 12.1398L28.3888 9.65486L30.5374 8.71444H33.5588C33.5588 8.71444 35.506 8.84828 35.8424 8.71444C36.1775 8.5806 37.4543 8.84828 37.857 8.71444C38.2597 8.5806 34.9031 5.42414 34.9031 5.42414L32.8884 3.47696L31.948 2" stroke="#9D28DB" stroke-width="3" stroke-miterlimit="10" stroke-linecap="round"/>
<path d="M36.7825 9.92374L34.9029 12.2061L33.157 13.8181L31.9478 14.4896" stroke="#9D28DB" stroke-width="3" stroke-miterlimit="10" stroke-linecap="round"/>
</svg>
