<svg width="28" height="22" viewBox="0 0 28 22" fill="none" xmlns="http://www.w3.org/2000/svg">
<path d="M27.9949 20.6772V0.921708L27.9953 0.919903L27.9949 0.918098V0.833256H27.9863C27.9653 0.606957 27.8608 0.396601 27.693 0.243308C27.5252 0.0900142 27.3063 0.004804 27.079 0.00433273C27.0682 0.00433273 27.0581 0.00722056 27.0476 0.00758159H25.3981C25.3724 0.00541541 25.3475 0 25.3212 0C25.0783 9.56828e-05 24.8454 0.096626 24.6736 0.268376C24.5019 0.440126 24.4053 0.673041 24.4052 0.915932C24.4052 0.958172 24.4121 0.998969 24.4179 1.03977V9.39435L12.3808 2.44453C12.295 2.35968 12.1862 2.30177 12.0679 2.27792C11.9496 2.25406 11.8269 2.2653 11.7149 2.31026C11.6029 2.35521 11.5064 2.43192 11.4375 2.53095C11.3685 2.62998 11.3299 2.74701 11.3266 2.86766H11.3244V8.373L1.05601 2.44417C0.970179 2.35932 0.861422 2.30141 0.743114 2.27756C0.624806 2.2537 0.502105 2.26494 0.390101 2.3099C0.278097 2.35485 0.181672 2.43156 0.112686 2.53059C0.0437003 2.62962 0.00516007 2.74665 0.00180519 2.8673H0V18.7638C0.000173974 18.887 0.0370717 19.0075 0.105984 19.1097C0.174896 19.2119 0.272697 19.2912 0.386905 19.3376C0.501114 19.384 0.626549 19.3953 0.747203 19.37C0.867858 19.3448 0.978258 19.2842 1.06431 19.1959L11.3244 13.2722V18.7641C11.3246 18.8874 11.3615 19.0078 11.4304 19.11C11.4993 19.2122 11.5971 19.2916 11.7113 19.338C11.8255 19.3843 11.951 19.3956 12.0716 19.3704C12.1923 19.3452 12.3027 19.2846 12.3887 19.1963L24.4179 12.2512V20.6928H24.4226C24.4218 20.7068 24.4182 20.7198 24.4182 20.7339C24.4183 20.9765 24.5146 21.2091 24.686 21.3807C24.8574 21.5524 25.0898 21.649 25.3324 21.6495H27.0841V21.6408C27.2043 21.6408 27.3235 21.6171 27.4346 21.5711C27.5457 21.5251 27.6467 21.4576 27.7317 21.3726C27.8168 21.2875 27.8842 21.1865 27.9303 21.0754C27.9763 20.9643 28 20.8452 28 20.7249C27.9996 20.7083 27.9957 20.6931 27.9949 20.6772Z" fill="white"/>
</svg>
