<svg width="60" height="52" viewBox="0 0 60 52" fill="none" xmlns="http://www.w3.org/2000/svg">
<path d="M60 16.6071C60 35.3571 32.1991 50.5339 31.0152 51.1607C30.7031 51.3286 30.3543 51.4165 30 51.4165C29.6457 51.4165 29.2969 51.3286 28.9848 51.1607C27.8009 50.5339 0 35.3571 0 16.6071C0.00496269 12.2042 1.75623 7.98297 4.8696 4.8696C7.98297 1.75623 12.2042 0.00496269 16.6071 0C22.1384 0 26.9812 2.37857 30 6.39911C33.0187 2.37857 37.8616 0 43.3929 0C47.7958 0.00496269 52.017 1.75623 55.1304 4.8696C58.2438 7.98297 59.995 12.2042 60 16.6071Z" fill="#DBA53D"/>
</svg>
