<svg width="18" height="24" viewBox="0 0 18 24" fill="none" xmlns="http://www.w3.org/2000/svg">
<path d="M17.6545 12.3869L1.20583 23.3527C1.08898 23.4305 0.95323 23.4751 0.813032 23.4818C0.672834 23.4885 0.533442 23.4571 0.409703 23.3908C0.285963 23.3246 0.18251 23.226 0.110362 23.1056C0.0382135 22.9852 7.25059e-05 22.8475 0 22.7071V0.775555C7.25059e-05 0.635196 0.0382135 0.497486 0.110362 0.377091C0.18251 0.256696 0.285963 0.158124 0.409703 0.091875C0.533442 0.0256258 0.672834 -0.00582023 0.813032 0.0008865C0.95323 0.00759323 1.08898 0.0522018 1.20583 0.12996L17.6545 11.0958C17.7608 11.1666 17.8479 11.2626 17.9082 11.3752C17.9685 11.4879 18 11.6136 18 11.7413C18 11.8691 17.9685 11.9948 17.9082 12.1075C17.8479 12.2201 17.7608 12.3161 17.6545 12.3869Z" fill="white"/>
</svg>
