<svg width="28" height="22" viewBox="0 0 28 22" fill="none" xmlns="http://www.w3.org/2000/svg">
<path d="M0.00505447 21.012V0.936631L0.00469398 0.934796L0.00505447 0.932962V0.846747H0.0137196C0.0346584 0.616784 0.139238 0.403022 0.30702 0.247247C0.474802 0.0914715 0.693722 0.00488178 0.920988 0.00440288C0.931818 0.00440288 0.941927 0.00733746 0.952396 0.00770433H2.60194C2.62757 0.00550308 2.65248 0 2.67884 0C2.92173 9.72319e-05 3.15465 0.0981903 3.3264 0.272721C3.49814 0.447251 3.59468 0.683938 3.59477 0.930761C3.59477 0.973685 3.58791 1.01514 3.58213 1.0566V9.54644L15.6192 2.48411C15.705 2.39789 15.8138 2.33904 15.9321 2.3148C16.0504 2.29056 16.1731 2.30198 16.2851 2.34766C16.3971 2.39335 16.4936 2.4713 16.5625 2.57193C16.6315 2.67256 16.6701 2.79149 16.6734 2.91408H16.6756V8.50855L26.944 2.48374C27.0298 2.39752 27.1386 2.33867 27.2569 2.31443C27.3752 2.29019 27.4979 2.30161 27.6099 2.3473C27.7219 2.39298 27.8183 2.47093 27.8873 2.57156C27.9563 2.6722 27.9948 2.79112 27.9982 2.91372H28V19.0676C27.9998 19.1928 27.9629 19.3152 27.894 19.4191C27.8251 19.5229 27.7273 19.6035 27.6131 19.6507C27.4989 19.6978 27.3735 19.7093 27.2528 19.6836C27.1321 19.658 27.0217 19.5964 26.9357 19.5067L16.6756 13.487V19.0679C16.6754 19.1932 16.6385 19.3156 16.5696 19.4194C16.5007 19.5233 16.4029 19.6039 16.2887 19.651C16.1745 19.6982 16.049 19.7096 15.9284 19.684C15.8077 19.6584 15.6973 19.5968 15.6113 19.5071L3.58213 12.4495V21.0278H3.57744C3.57816 21.0421 3.58177 21.0553 3.58177 21.0696C3.58168 21.3161 3.48538 21.5524 3.31401 21.7269C3.14264 21.9013 2.91019 21.9995 2.66765 22H0.915934V21.9912C0.79565 21.9912 0.676546 21.9671 0.56542 21.9203C0.454294 21.8736 0.353323 21.805 0.26827 21.7186C0.18322 21.6322 0.115751 21.5295 0.0697212 21.4166C0.0236912 21.3037 0 21.1827 0 21.0604C0.000360489 21.0436 0.0043335 21.0281 0.00505447 21.012Z" fill="white"/>
</svg>
