<svg width="42" height="42" viewBox="0 0 42 42" fill="none" xmlns="http://www.w3.org/2000/svg">
<path d="M8.085 31.71C9.87 30.345 11.865 29.2684 14.07 28.4802C16.275 27.692 18.585 27.2986 21 27.3C23.415 27.3 25.725 27.6941 27.93 28.4823C30.135 29.2705 32.13 30.3464 33.915 31.71C35.14 30.275 36.0941 28.6475 36.7773 26.8275C37.4605 25.0075 37.8014 23.065 37.8 21C37.8 16.345 36.1641 12.3809 32.8923 9.1077C29.6205 5.8345 25.6564 4.1986 21 4.2C16.345 4.2 12.3809 5.8359 9.1077 9.1077C5.8345 12.3795 4.1986 16.3436 4.2 21C4.2 23.065 4.5416 25.0075 5.2248 26.8275C5.908 28.6475 6.8614 30.275 8.085 31.71ZM21 23.1C18.935 23.1 17.1934 22.3916 15.7752 20.9748C14.357 19.558 13.6486 17.8164 13.65 15.75C13.65 13.685 14.3584 11.9434 15.7752 10.5252C17.192 9.107 18.9336 8.3986 21 8.4C23.065 8.4 24.8066 9.1084 26.2248 10.5252C27.643 11.942 28.3514 13.6836 28.35 15.75C28.35 17.815 27.6416 19.5566 26.2248 20.9748C24.808 22.393 23.0664 23.1014 21 23.1ZM21 42C18.095 42 15.365 41.4484 12.81 40.3452C10.255 39.242 8.0325 37.7461 6.1425 35.8575C4.2525 33.9675 2.7566 31.745 1.6548 29.19C0.553 26.635 0.0014 23.905 0 21C0 18.095 0.5516 15.365 1.6548 12.81C2.758 10.255 4.2539 8.0325 6.1425 6.1425C8.0325 4.2525 10.255 2.7566 12.81 1.6548C15.365 0.553 18.095 0.0014 21 0C23.905 0 26.635 0.5516 29.19 1.6548C31.745 2.758 33.9675 4.2539 35.8575 6.1425C37.7475 8.0325 39.2441 10.255 40.3473 12.81C41.4505 15.365 42.0014 18.095 42 21C42 23.905 41.4484 26.635 40.3452 29.19C39.242 31.745 37.7461 33.9675 35.8575 35.8575C33.9675 37.7475 31.745 39.2441 29.19 40.3473C26.635 41.4505 23.905 42.0014 21 42Z" fill="#9D28DB"/>
</svg>
