<svg width="28" height="28" viewBox="0 0 28 28" fill="none" xmlns="http://www.w3.org/2000/svg">
<path d="M25.8222 28L16.0222 18.2C15.2444 18.8222 14.35 19.3148 13.3389 19.6778C12.3278 20.0407 11.2519 20.2222 10.1111 20.2222C7.28519 20.2222 4.89378 19.2433 2.93689 17.2853C0.98 15.3274 0.00103704 12.936 0 10.1111C0 7.28519 0.978963 4.89378 2.93689 2.93689C4.89481 0.98 7.28622 0.00103704 10.1111 0C12.937 0 15.3284 0.978963 17.2853 2.93689C19.2422 4.89481 20.2212 7.28622 20.2222 10.1111C20.2222 11.2519 20.0407 12.3278 19.6778 13.3389C19.3148 14.35 18.8222 15.2444 18.2 16.0222L28 25.8222L25.8222 28ZM10.1111 17.1111C12.0556 17.1111 13.7086 16.4303 15.0702 15.0687C16.4319 13.707 17.1121 12.0545 17.1111 10.1111C17.1111 8.16667 16.4303 6.51363 15.0687 5.152C13.707 3.79037 12.0545 3.11007 10.1111 3.11111C8.16667 3.11111 6.51363 3.79193 5.152 5.15356C3.79037 6.51519 3.11007 8.1677 3.11111 10.1111C3.11111 12.0556 3.79193 13.7086 5.15356 15.0702C6.51519 16.4319 8.1677 17.1121 10.1111 17.1111Z" fill="#F0F0F0"/>
</svg>
