<svg width="45" height="54" viewBox="0 0 45 54" fill="none" xmlns="http://www.w3.org/2000/svg">
<path d="M16.0714 40.4757H28.9286C30.6964 40.4757 32.1429 39.0293 32.1429 37.2614V21.19H37.2536C40.1143 21.19 41.5607 17.7186 39.5357 15.6936L24.7821 0.939999C24.4848 0.642023 24.1316 0.40562 23.7427 0.244322C23.3539 0.0830249 22.937 0 22.5161 0C22.0951 0 21.6783 0.0830249 21.2894 0.244322C20.9006 0.40562 20.5474 0.642023 20.25 0.939999L5.49643 15.6936C3.47143 17.7186 4.88571 21.19 7.74643 21.19H12.8571V37.2614C12.8571 39.0293 14.3036 40.4757 16.0714 40.4757ZM3.21429 46.9043H41.7857C43.5536 46.9043 45 48.3507 45 50.1186C45 51.8864 43.5536 53.3329 41.7857 53.3329H3.21429C1.44643 53.3329 0 51.8864 0 50.1186C0 48.3507 1.44643 46.9043 3.21429 46.9043Z" fill="#F0F0F0"/>
</svg>
