<svg width="25" height="23" viewBox="0 0 25 23" fill="none" xmlns="http://www.w3.org/2000/svg">
<path d="M5.98454 16.2337L6.42398 15.5001L6.2205 15.3805H5.98454V16.2337ZM5.98454 5.9813V6.83624H6.2205L6.42569 6.71484L5.98454 5.9813ZM14.5339 0.855114H15.3888C15.3889 0.703849 15.3488 0.555284 15.2726 0.424581C15.1965 0.293878 15.087 0.185716 14.9554 0.111137C14.8238 0.0365566 14.6748 -0.00177183 14.5235 6.29075e-05C14.3723 0.00189764 14.2242 0.0438299 14.0945 0.12158L14.5339 0.855114ZM14.5339 21.3599L14.0945 22.0934C14.2242 22.1712 14.3723 22.2131 14.5235 22.2149C14.6748 22.2168 14.8238 22.1784 14.9554 22.1038C15.087 22.0293 15.1965 21.9211 15.2726 21.7904C15.3488 21.6597 15.3889 21.5111 15.3888 21.3599H14.5339ZM19.5609 8.08615L18.9556 7.48257L17.7467 8.69145L18.352 9.29674L19.5609 8.08615ZM23.1858 14.1288L23.7911 14.7324L25 13.5235L24.3947 12.92L23.1858 14.1288ZM24.3964 9.29674L25 8.69145L23.7911 7.48257L23.1875 8.08615L24.3964 9.29674ZM18.352 12.92L17.7467 13.5235L18.9556 14.7324L19.5609 14.1288L18.352 12.92ZM5.98454 15.3805L2.5648 15.3787V17.0886H5.98454V15.3805ZM2.5648 15.3787C2.45247 15.379 2.3412 15.357 2.23737 15.3141C2.13354 15.2712 2.0392 15.2083 1.95977 15.1288C1.88034 15.0494 1.81737 14.9551 1.77449 14.8512C1.7316 14.7474 1.70964 14.6361 1.70987 14.5238H0C0 15.943 1.14732 17.0886 2.5648 17.0886V15.3787ZM1.70987 14.5238V7.69117H0V14.5272H1.70987V14.5238ZM1.70987 7.69117C1.70987 7.21925 2.09117 6.83624 2.5648 6.83624V5.12637C1.14732 5.12637 0 6.27198 0 7.69117H1.70987ZM2.5648 6.83624H5.98454V5.12637H2.5648V6.83624ZM6.42569 6.71484L14.9733 1.58865L14.0945 0.12158L5.54511 5.24777L6.42569 6.71484ZM13.679 0.855114V21.3599H15.3888V0.855114H13.679ZM14.9733 20.6263L6.42398 15.5001L5.54511 16.9672L14.0945 22.0934L14.9733 20.6263ZM18.352 9.29674L23.1858 14.1288L24.3947 12.92L19.5609 8.08615L18.352 9.29674ZM23.1875 8.08615L18.352 12.92L19.5609 14.1288L24.3964 9.29674L23.1875 8.08615Z" fill="white"/>
</svg>
